<svg width="24" height="24" viewBox="0 0 24 24" fill="none" xmlns="http://www.w3.org/2000/svg">
<g id="sun-cloud">
<g id="Icon/cloud">
<path id="Combined Shape" d="M16.7677 12.1876L16.2742 12.2682L16.3349 12.6392L16.7081 12.684L16.7677 12.1876ZM7.4257 10.6373L7.29146 11.119L7.67685 11.2264L7.86617 10.8739L7.4257 10.6373ZM17.2611 12.1069C16.8342 9.494 14.5671 7.5 11.8334 7.5V8.5C14.0692 8.5 15.925 10.1311 16.2742 12.2682L17.2611 12.1069ZM19.8334 15.0833C19.8334 13.3352 18.5208 11.8943 16.8272 11.6911L16.7081 12.684C17.9052 12.8276 18.8334 13.8474 18.8334 15.0833H19.8334ZM16.4167 18.5C18.3037 18.5 19.8334 16.9703 19.8334 15.0833H18.8334C18.8334 16.418 17.7514 17.5 16.4167 17.5V18.5ZM11.8334 18.5H16.4167V17.5H11.8334V18.5ZM6.41669 18.5H11.8334V17.5H6.41669V18.5ZM2.16669 14.25C2.16669 16.5972 4.06948 18.5 6.41669 18.5V17.5C4.62176 17.5 3.16669 16.0449 3.16669 14.25H2.16669ZM6.41669 10C4.06948 10 2.16669 11.9028 2.16669 14.25H3.16669C3.16669 12.4551 4.62176 11 6.41669 11V10ZM7.55993 10.1557C7.19561 10.0541 6.81206 10 6.41669 10V11C6.72045 11 7.01371 11.0415 7.29146 11.119L7.55993 10.1557ZM11.8334 7.5C9.73515 7.5 7.91217 8.67509 6.98522 10.4007L7.86617 10.8739C8.62582 9.45973 10.1179 8.5 11.8334 8.5V7.5Z" fill="white"/>
</g>
<path id="Oval" d="M18.152 12.8316C18.8924 12.6093 19.5425 12.1783 20.034 11.6068C20.6361 10.9067 21 9.99584 21 9C21 6.79086 19.2091 5 17 5C15.9966 5 15.0795 5.36944 14.3773 5.97972C13.7671 6.51006 13.3192 7.22226 13.1179 8.03194" stroke="white"/>
</g>
</svg>
