<svg width="24" height="24" viewBox="0 0 24 24" fill="none" xmlns="http://www.w3.org/2000/svg">
<path d="M19.0512 17.9568C20.7223 17.6925 22 16.2455 22 14.5C22 12.7096 20.6556 11.2331 18.9212 11.0251C18.4555 8.17504 15.9818 6 13 6C10.7118 6 8.72277 7.28089 7.71081 9.16477C7.32556 9.0574 6.91948 9 6.5 9C4.01472 9 2 11.0147 2 13.5C2 15.8113 3.74258 17.7157 5.98563 17.9709C6.15443 17.9901 7 17.9568 7 17.9568" stroke="white" stroke-linecap="round"/>
<path d="M16 18H10" stroke="white" stroke-linecap="round"/>
<path d="M11.5 15.4019L14.5 20.5981" stroke="white" stroke-linecap="round"/>
<path d="M14.7634 15.5729L11.2366 20.4271" stroke="white" stroke-linecap="round"/>
</svg>
