<svg width="24" height="24" viewBox="0 0 24 24" fill="none" xmlns="http://www.w3.org/2000/svg">
<path fill-rule="evenodd" clip-rule="evenodd" d="M12 16C14.2091 16 16 14.2091 16 12C16 9.79086 14.2091 8 12 8C9.79086 8 8 9.79086 8 12C8 14.2091 9.79086 16 12 16Z" fill="#F2C800" stroke="#F2C800"/>
<path d="M12 5V3" stroke="#F2C800" stroke-linecap="round" stroke-linejoin="round"/>
<path d="M12 21V19" stroke="#F2C800" stroke-linecap="round" stroke-linejoin="round"/>
<path fill-rule="evenodd" clip-rule="evenodd" d="M5 12H2H5Z" stroke="#F2C800" stroke-linecap="round" stroke-linejoin="round"/>
<path fill-rule="evenodd" clip-rule="evenodd" d="M22 12H19H22Z" stroke="#F2C800" stroke-linecap="round" stroke-linejoin="round"/>
<path fill-rule="evenodd" clip-rule="evenodd" d="M16.9498 7.05025L19.0711 4.92892L16.9498 7.05025Z" stroke="#F2C800" stroke-linecap="round" stroke-linejoin="round"/>
<path fill-rule="evenodd" clip-rule="evenodd" d="M4.92896 19.0711L7.05028 16.9497L4.92896 19.0711Z" stroke="#F2C800" stroke-linecap="round" stroke-linejoin="round"/>
<path fill-rule="evenodd" clip-rule="evenodd" d="M16.9498 16.9497L19.0711 19.0711L16.9498 16.9497Z" stroke="#F2C800" stroke-linecap="round" stroke-linejoin="round"/>
<path fill-rule="evenodd" clip-rule="evenodd" d="M4.92896 4.92892L7.05028 7.05025L4.92896 4.92892Z" stroke="#F2C800" stroke-linecap="round" stroke-linejoin="round"/>
</svg>
