<svg width="169" height="101" viewBox="0 0 169 101" fill="none" xmlns="http://www.w3.org/2000/svg">
<rect y="5" width="169" height="58" fill="#F10E0E"/>
<rect y="63" width="169" height="38" fill="black"/>
<g filter="url(#filter0_d)">
<path d="M150.062 22.625H136V13.25H161V22.625C151 40.9583 146 52.4167 146 57H136C136 52.4167 140.688 40.9583 150.062 22.625Z" fill="white"/>
<path d="M150.062 22.625L151.398 23.3079L152.514 21.125H150.062V22.625ZM136 22.625H134.5V24.125H136V22.625ZM136 13.25V11.75H134.5V13.25H136ZM161 13.25H162.5V11.75H161V13.25ZM161 22.625L162.317 23.3433L162.5 23.0075V22.625H161ZM146 57V58.5H147.5V57H146ZM136 57H134.5V58.5H136V57ZM150.062 21.125H136V24.125H150.062V21.125ZM137.5 22.625V13.25H134.5V22.625H137.5ZM136 14.75H161V11.75H136V14.75ZM159.5 13.25V22.625H162.5V13.25H159.5ZM159.683 21.9067C154.674 31.0901 150.9 38.5817 148.375 44.3688C147.113 47.2619 146.152 49.7512 145.505 51.8271C144.866 53.8777 144.5 55.6256 144.5 57H147.5C147.5 56.0827 147.759 54.6796 148.37 52.7198C148.973 50.7853 149.887 48.4048 151.125 45.5687C153.6 39.8975 157.326 32.4932 162.317 23.3433L159.683 21.9067ZM146 55.5H136V58.5H146V55.5ZM137.5 57C137.5 56.0685 137.746 54.6553 138.319 52.6942C138.885 50.7564 139.743 48.3737 140.904 45.5367C143.225 39.8636 146.719 32.4581 151.398 23.3079L148.727 21.9421C144.031 31.1252 140.494 38.6155 138.127 44.4008C136.944 47.293 136.045 49.78 135.439 51.8527C134.84 53.902 134.5 55.6398 134.5 57H137.5Z" fill="#535353"/>
</g>
<path d="M18.1309 93L12.6377 72.4922H17.1934L20.5918 85.1777L21.251 82.7461L18.4971 72.4922H23.0527L23.5215 74.2354L23.9902 72.4922H28.5459L25.8066 82.7461L26.4512 85.1777L29.8496 72.4922H34.4053L28.9121 93H23.9902L23.5215 91.2568L23.0527 93H18.1309ZM44.9023 80.5488H50.7617V84.9434H44.9023V88.6055H52.2266V93H40.5078V72.4922H52.2266V76.8867H44.9023V80.5488ZM69.0957 90.8027H63.4707L62.8848 93H58.3291L63.8223 72.4922H68.7441L74.2373 93H69.6816L69.0957 90.8027ZM64.6572 86.4082H67.9092L66.2832 80.3145L64.6572 86.4082ZM92 72.4922V76.8867H87.6055V93H83.2109V76.8867H78.8164V72.4922H92ZM103.859 84.9434V93H99.4648V72.4922H103.859V80.5488H108.254V72.4922H112.648V93H108.254V84.9434H103.859ZM124.508 80.5488H130.367V84.9434H124.508V88.6055H131.832V93H120.113V72.4922H131.832V76.8867H124.508V80.5488ZM139.297 72.4922H146.255C150.405 72.4922 152.48 74.5674 152.48 78.7178C152.48 81.4814 151.558 83.3271 149.712 84.2549C151.04 87.165 152.1 90.0801 152.891 93H148.174C147.451 90.3145 146.494 87.6289 145.303 84.9434H143.691V93H139.297V72.4922ZM143.691 76.8867V80.5488H146.255C147.476 80.5488 148.086 79.9385 148.086 78.7178C148.086 77.4971 147.476 76.8867 146.255 76.8867H143.691Z" fill="white"/>
<path d="M31.864 20.6H7.756V27.908H15.736V50H23.884V27.908H31.864V20.6ZM43.5538 42.986V38.576H53.2138V31.94H43.5538V27.614H54.3058V20.6H35.4898V50H54.6838V42.986H43.5538ZM78.8079 50H87.7539L75.9519 20.6H68.0139L56.4639 50H65.1579L66.7959 45.254H77.2119L78.8079 50ZM75.2379 38.912H68.7699L71.9619 29.798L75.2379 38.912ZM127.828 50L123.418 20.6H115.354L108.382 36.602L101.452 20.6H93.3458L88.8938 50H97.1258L99.3938 33.116L107.164 50.084H109.558L117.37 33.074L119.638 50H127.828Z" fill="#00079E"/>
<defs>
<filter id="filter0_d" x="134.5" y="11.75" width="30" height="48.75" filterUnits="userSpaceOnUse" color-interpolation-filters="sRGB">
<feFlood flood-opacity="0" result="BackgroundImageFix"/>
<feColorMatrix in="SourceAlpha" type="matrix" values="0 0 0 0 0 0 0 0 0 0 0 0 0 0 0 0 0 0 127 0"/>
<feOffset dx="1" dy="1"/>
<feGaussianBlur stdDeviation="0.5"/>
<feColorMatrix type="matrix" values="0 0 0 0 0 0 0 0 0 0 0 0 0 0 0 0 0 0 0.5 0"/>
<feBlend mode="normal" in2="BackgroundImageFix" result="effect1_dropShadow"/>
<feBlend mode="normal" in="SourceGraphic" in2="effect1_dropShadow" result="shape"/>
</filter>
</defs>
</svg>
